- 
http://www.Speed.Cd 
       
http://www.Speed.Cd       the fast  and The Hottest Private Tracker on the net

(((--Registration will be open on june every weekend--)))

Please Seed back to make the speed Faster!!!

and don't forget to visit      ...... http://www.Speed.Cd..........
-[img]http://img710.imageshack.us/img710/3668/redridinghoodc.jpg[/img]

[color=blue][size=5][b]Red.Riding.Hood.2011.BDRip.XVID.AC3.HQ.Hive-CM8[/b][/size][/color]


[b]Thx Hive

CM8 Doing It Right The First Time :D


Source: Bluray

Video: 720x304 @bitrate 1750 2pass
Audio: DTS to AC3 5.1 @448
Sample: yes included
Subs: yes english in srt /subs[/b]


[url]http://www.imdb.com/title/tt1486185/[/url]


General
Complete name                    : Red.Riding.Hood.2011.BDRip.XVID.AC3.HQ.Hive-CM8.avi
Format                           : AVI
Format/Info                      : Audio Video Interleave
File size                        : 1.54 GiB
Duration                         : 1h 40mn
Overall bit rate                 : 2 202 Kbps
Writing application              : Nandub v1.0rc2
Writing library                  : Nandub build 1853/release

Video
ID                               : 0
Format                           : MPEG-4 Visual
Format profile                   : Advanced Simple@L5
Format settings, BVOP            : 1
Format settings, QPel            : Yes
Format settings, GMC             : No warppoints
Format settings, Matrix          : Default (H.263)
Muxing mode                      : Packed bitstream
Codec ID                         : XVID
Codec ID/Hint                    : XviD
Duration                         : 1h 40mn
Bit rate                         : 1 745 Kbps
Width                            : 720 pixels
Height                           : 304 pixels
Display aspect ratio             : 2.40:1
Frame rate                       : 23.976 fps
Color space                      : YUV
Chroma subsampling               : 4:2:0
Bit depth                        : 8 bits
Scan type                        : Progressive
Compression mode                 : Lossy
Bits/(Pixel*Frame)               : 0.333
Stream size                      : 1.22 GiB (79%)
Writing library                  : XviD 1.2.1 (UTC 2008-12-04)

Audio
ID                               : 1
Format                           : AC-3
Format/Info                      : Audio Coding 3
Mode extension                   : CM (complete main)
Codec ID                         : 2000
Duration                         : 1h 40mn
Bit rate mode                    : Constant
Bit rate                         : 448 Kbps
Channel(s)                       : 6 channels
Channel positions                : Front: L C R, Side: L R, LFE
Sampling rate                    : 48.0 KHz
Bit depth                        : 16 bits
Compression mode                 : Lossy
Stream size                      : 322 MiB (20%)
Alignment                        : Split accross interleaves
Interleave, duration             : 42 ms (1.00 video frame)
Interleave, preload duration     : 500 ms



Amanda Seyfried	 ... 	Valerie
Gary Oldman	... 	Father Solomon
Billy Burke	... 	Cesaire
Shiloh Fernandez	... 	Peter
Max Irons	... 	Henry Lazar
Virginia Madsen	... 	Suzette


Set in a medieval village that is haunted by a werewolf, a young girl falls 
for an orphaned woodcutter, much to her family's displeasure.  


[img]http://img860.imageshack.us/img860/7867/36346261.png[/img]
[img]http://img26.imageshack.us/img26/9648/rererree.png[/img]
[img]http://img197.imageshack.us/img197/3340/rerree.png[/img]
[img]http://img3.imageshack.us/img3/362/rerererree.png[/img]
[img]http://img198.imageshack.us/img198/4936/rererreerree.png[/img]
[img]http://img135.imageshack.us/img135/6753/rererrereerree.png[/img]
[img]http://img684.imageshack.us/img684/3803/rerew.png[/img]






Greetz

ViSiON,SANTi,MAGNET,THC,T0XiC,iNK,LKRG,IMAGiNE,WBZ,FLAWL3SS,NOVA
Vik,OneTwo,Rapeseed,D2U,SAFC,goldadvance,MEMORY100,KaN1vE,Unevano,Pinnz,Wayne,Mr Hive
and all P2P groups 
Great Work Guys :D

FYS

CM8@hushmail.com